<svg width="24" height="24" viewBox="0 0 24 24" fill="none" xmlns="http://www.w3.org/2000/svg">
<g clip-path="url(#clip0_8046_413)">
<g clip-path="url(#clip1_8046_413)">
<path d="M6.50253 23.4374C5.73933 23.434 4.99682 23.189 4.38153 22.7374C3.75274 22.2951 3.28354 21.6616 3.04372 20.9311C2.80391 20.2007 2.8063 19.4124 3.05053 18.6834L4.22053 15.0644L1.14053 12.8124C0.522969 12.3612 0.0639451 11.7263 -0.170871 10.9984C-0.405688 10.2705 -0.404264 9.48697 -0.166803 8.75994C0.0706573 8.03291 0.531986 7.39962 1.15118 6.95067C1.77037 6.50171 2.5157 6.26011 3.28053 6.26042H7.05053L8.19553 2.69042C8.43052 1.95936 8.89147 1.32174 9.512 0.869401C10.1325 0.41706 10.8806 0.17334 11.6485 0.17334C12.4164 0.17334 13.1645 0.41706 13.785 0.869401C14.4056 1.32174 14.8665 1.95936 15.1015 2.69042L16.2505 6.26042H20.0205C20.7853 6.26032 21.5304 6.50208 22.1495 6.95111C22.7685 7.40014 23.2297 8.03344 23.467 8.76042C23.7043 9.4874 23.7057 10.2708 23.4708 10.9986C23.236 11.7264 22.777 12.3613 22.1595 12.8124L19.0805 15.0644L20.2505 18.6834C20.4864 19.4134 20.4847 20.1995 20.2456 20.9284C20.0065 21.6574 19.5424 22.2917 18.9199 22.7402C18.2975 23.1887 17.5488 23.4282 16.7817 23.4243C16.0145 23.4204 15.2683 23.1732 14.6505 22.7184L11.6505 20.5124L8.65053 22.7194C8.02979 23.1824 7.2769 23.4341 6.50253 23.4374ZM3.28053 9.26042C3.14853 9.26041 3.01991 9.30212 2.91304 9.37959C2.80617 9.45706 2.72653 9.56633 2.68549 9.69178C2.64445 9.81723 2.64411 9.95245 2.68453 10.0781C2.72494 10.2038 2.80405 10.3134 2.91053 10.3914L6.86653 13.2824C7.12126 13.4687 7.31077 13.7305 7.40807 14.0307C7.50538 14.3309 7.50554 14.6541 7.40853 14.9544L5.90853 19.6044C5.8669 19.7306 5.86648 19.8667 5.90731 19.993C5.94814 20.1194 6.02812 20.2296 6.13567 20.3075C6.24323 20.3854 6.37278 20.4271 6.5056 20.4266C6.63842 20.426 6.76763 20.3833 6.87453 20.3044L10.7635 17.4434C11.0212 17.2538 11.3327 17.1516 11.6525 17.1516C11.9724 17.1516 12.2839 17.2538 12.5415 17.4434L16.4305 20.3034C16.5373 20.383 16.6667 20.4264 16.7998 20.4273C16.933 20.4282 17.0629 20.3865 17.1707 20.3084C17.2786 20.2302 17.3586 20.1197 17.3992 19.9929C17.4398 19.8661 17.4389 19.7297 17.3965 19.6034L15.8965 14.9534C15.7995 14.6531 15.7997 14.3299 15.897 14.0297C15.9943 13.7295 16.1838 13.4677 16.4385 13.2814L20.3935 10.3904C20.4999 10.3125 20.579 10.2029 20.6194 10.0773C20.6599 9.95178 20.6596 9.81666 20.6187 9.69125C20.5778 9.56585 20.4983 9.45658 20.3916 9.37903C20.2849 9.30148 20.1564 9.25962 20.0245 9.25942H15.1505C14.8328 9.25934 14.5234 9.1584 14.2667 8.97113C14.0101 8.78386 13.8195 8.51995 13.7225 8.21742L12.2505 3.60642C12.21 3.48022 12.1304 3.37015 12.0233 3.29206C11.9162 3.21396 11.7871 3.17189 11.6545 3.17189C11.522 3.17189 11.3928 3.21396 11.2857 3.29206C11.1786 3.37015 11.0991 3.48022 11.0585 3.60642L9.57553 8.21842C9.47868 8.52046 9.28858 8.78403 9.03254 8.97125C8.77651 9.15847 8.46771 9.25971 8.15053 9.26042H3.28053Z" fill="#9B51E0"/>
</g>
</g>
<defs>
<clipPath id="clip0_8046_413">
<rect width="24" height="24" fill="white"/>
</clipPath>
<clipPath id="clip1_8046_413">
<rect width="24" height="24" fill="white" transform="translate(-0.349609)"/>
</clipPath>
</defs>
</svg>
