<svg width="25" height="24" viewBox="0 0 25 24" fill="none" xmlns="http://www.w3.org/2000/svg">
<g clip-path="url(#clip0_8046_409)">
<g clip-path="url(#clip1_8046_409)">
<path d="M18.9372 2.27014C17.9989 1.42409 16.89 0.789043 15.6854 0.407813C14.4808 0.0265825 13.2085 -0.0919709 11.9542 0.0601445C10.2376 0.288715 8.62074 0.998559 7.29064 2.10758C5.96054 3.2166 4.97156 4.67949 4.43806 6.32705C3.90456 7.97461 3.84835 9.73954 4.27593 11.4177C4.70351 13.0959 5.59741 14.6187 6.85424 15.8101C7.80924 16.7111 8.00024 18.0001 8.00024 19.7791V19.9321C7.99518 21.0045 8.4157 22.035 9.16953 22.7976C9.92336 23.5603 10.9489 23.9927 12.0212 24.0001H13.9792C15.0515 23.9927 16.0771 23.5603 16.8309 22.7976C17.5848 22.035 18.0053 21.0045 18.0002 19.9321V19.4091C18.0002 17.7391 18.1502 16.7001 18.9422 15.9941C19.9054 15.1292 20.6756 14.0712 21.2029 12.8889C21.7302 11.7067 22.0027 10.4267 22.0027 9.13214C22.0027 7.83763 21.7302 6.55762 21.2029 5.37537C20.6756 4.19311 19.9054 3.1351 18.9422 2.27014H18.9372ZM15.0002 19.9321C15.0061 20.2091 14.902 20.477 14.7106 20.6772C14.5192 20.8775 14.2562 20.9936 13.9792 21.0001H12.0212C11.7443 20.9936 11.4813 20.8775 11.2899 20.6772C11.0985 20.477 10.9943 20.2091 11.0002 19.9321V19.7791C11.0002 19.5201 11.0002 19.2601 10.9862 19.0001H15.0062C15.0062 19.1371 15.0002 19.2741 15.0002 19.4091V19.9321ZM16.9452 13.7551C16.2639 14.3626 15.7513 15.136 15.4572 16.0001H14.5002V11.0831C14.9546 10.8217 15.3322 10.4454 15.5955 9.99214C15.8587 9.53883 15.9983 9.02434 16.0002 8.50014C16.0002 8.10232 15.8422 7.72079 15.5609 7.43949C15.2796 7.15818 14.8981 7.00015 14.5002 7.00015C14.1024 7.00015 13.7209 7.15818 13.4396 7.43949C13.1583 7.72079 13.0002 8.10232 13.0002 8.50014C13.0002 8.10232 12.8422 7.72079 12.5609 7.43949C12.2796 7.15818 11.8981 7.00015 11.5002 7.00015C11.1024 7.00015 10.7209 7.15818 10.4396 7.43949C10.1583 7.72079 10.0002 8.10232 10.0002 8.50014C10.0022 9.02434 10.1417 9.53883 10.405 9.99214C10.6682 10.4454 11.0459 10.8217 11.5002 11.0831V16.0001H10.4622C10.1426 15.1005 9.61491 14.2892 8.92224 13.6321C8.21171 12.9582 7.67153 12.1249 7.34623 11.2012C7.02093 10.2775 6.91982 9.28963 7.05124 8.31915C7.21886 6.98259 7.82507 5.73939 8.77493 4.78429C9.72479 3.82918 10.9646 3.21612 12.3002 3.04114C12.5326 3.01382 12.7663 3.00013 13.0002 3.00014C14.4554 2.99661 15.8598 3.53449 16.9402 4.50914C17.5883 5.09223 18.1065 5.80498 18.4614 6.60119C18.8164 7.3974 19 8.2593 19.0005 9.13103C19.0009 10.0028 18.8182 10.8649 18.4642 11.6615C18.1101 12.4581 17.5926 13.1714 16.9452 13.7551Z" fill="#9B51E0"/>
</g>
</g>
<defs>
<clipPath id="clip0_8046_409">
<rect width="24" height="24" fill="white" transform="translate(0.650391)"/>
</clipPath>
<clipPath id="clip1_8046_409">
<rect width="24" height="24" fill="white" transform="translate(1)"/>
</clipPath>
</defs>
</svg>
