<svg width="30" height="30" viewBox="0 0 30 30" fill="none" xmlns="http://www.w3.org/2000/svg">
<path d="M3.75 18.75V9.75C3.75 6.92157 3.75 5.50736 4.62868 4.62868C5.50736 3.75 6.92157 3.75 9.75 3.75H20.25C23.0784 3.75 24.4926 3.75 25.3713 4.62868C26.25 5.50736 26.25 6.92157 26.25 9.75V20.25C26.25 23.0784 26.25 24.4926 25.3713 25.3713C24.4926 26.25 23.0784 26.25 20.25 26.25H11.25" stroke="#E72168" stroke-width="2" stroke-linecap="round"/>
<path d="M18.75 11.25V10.25H19.75V11.25H18.75ZM9.45711 21.9571C9.06658 22.3476 8.43342 22.3476 8.04289 21.9571C7.65237 21.5666 7.65237 20.9334 8.04289 20.5429L9.45711 21.9571ZM17.75 20V11.25H19.75V20H17.75ZM18.75 12.25H10V10.25H18.75V12.25ZM19.4571 11.9571L9.45711 21.9571L8.04289 20.5429L18.0429 10.5429L19.4571 11.9571Z" fill="#E72168"/>
</svg>
