<svg width="25" height="24" viewBox="0 0 25 24" fill="none" xmlns="http://www.w3.org/2000/svg">
<g clip-path="url(#clip0_8046_402)">
<g clip-path="url(#clip1_8046_402)">
<path d="M22.9748 8.69514L15.8888 1.60916C13.7393 -0.534759 10.2602 -0.534759 8.11077 1.60916L1.02478 8.69514C0.366284 9.35013 -0.00280884 10.2413 -0.000230725 11.1701V21.5481C0.0019724 22.9027 1.10016 24 2.4548 24.0011H21.5447C22.8994 24 23.9975 22.9027 23.9997 21.5481V11.1701C24.0023 10.2413 23.6333 9.35013 22.9748 8.69514ZM20.9997 21.0011H15.9998V17.8191C15.9998 15.7105 14.2904 14.0011 12.1818 14.0011H11.8178C9.70916 14.0011 7.99977 15.7105 7.99977 17.8191V21.0011H2.99976V11.1701C3.00009 11.0375 3.0525 10.9104 3.14578 10.8161L10.2318 3.73015C11.2079 2.7537 12.7909 2.75352 13.7673 3.72969C13.7674 3.72983 13.7676 3.73001 13.7678 3.73015L20.8538 10.8161C20.947 10.9104 20.9994 11.0375 20.9998 11.1701V21.0011H20.9997Z" fill="#9B51E0"/>
</g>
</g>
<defs>
<clipPath id="clip0_8046_402">
<rect width="24" height="24" fill="white" transform="translate(0.0163574)"/>
</clipPath>
<clipPath id="clip1_8046_402">
<rect width="24" height="24" fill="white"/>
</clipPath>
</defs>
</svg>
