<svg width="24" height="24" viewBox="0 0 24 24" fill="none" xmlns="http://www.w3.org/2000/svg">
<g clip-path="url(#clip0_8046_406)">
<g clip-path="url(#clip1_8046_406)">
<path d="M19.8656 4.43744C18.6301 2.78104 16.9546 1.50461 15.0295 0.753338C13.1045 0.00206322 11.0073 -0.193903 8.97641 0.187728C6.94552 0.56936 5.06249 1.51327 3.5415 2.9121C2.02051 4.31093 0.922603 6.10853 0.372659 8.10044C-0.0691136 9.75207 -0.118329 11.4842 0.228947 13.1582C0.576224 14.8323 1.31036 16.4018 2.37266 17.7414C2.75072 18.2039 2.96551 18.7783 2.98366 19.3754V19.4854C2.98312 20.6805 3.45658 21.8269 4.30018 22.6733C5.14377 23.5197 6.28864 23.997 7.48365 24.0004H12.4836C13.421 23.9994 14.3347 23.706 15.0975 23.1613C15.8603 22.6167 16.4343 21.8477 16.7396 20.9614C17.9252 20.8225 19.0328 20.3 19.8939 19.4733C20.755 18.6467 21.3224 17.5613 21.5096 16.3824L21.6536 15.4974C22.2982 15.4648 22.9041 15.1796 23.3401 14.7038C23.7762 14.2279 24.0073 13.5995 23.9836 12.9544C23.9836 11.3554 21.0366 5.88244 19.8656 4.43744ZM20.3776 12.5004C20.0215 12.5006 19.6771 12.6274 19.4059 12.8583C19.1348 13.0891 18.9546 13.4089 18.8976 13.7604L18.5486 15.9004C18.4556 16.4869 18.1561 17.0208 17.7041 17.4059C17.2521 17.7909 16.6774 18.0018 16.0836 18.0004H15.4836C15.2867 18.0004 15.0916 18.0392 14.9096 18.1146C14.7276 18.19 14.5623 18.3005 14.423 18.4398C14.2837 18.5791 14.1732 18.7444 14.0978 18.9264C14.0224 19.1084 13.9836 19.3035 13.9836 19.5004C13.9836 19.8983 13.8256 20.2798 13.5443 20.5611C13.263 20.8424 12.8815 21.0004 12.4836 21.0004H7.48365C7.08404 20.9978 6.70178 20.8369 6.42061 20.5529C6.13945 20.2689 5.98232 19.8851 5.98365 19.4854V19.3754C5.97083 18.111 5.53421 16.8874 4.74365 15.9004C3.96337 14.9286 3.42318 13.7865 3.16691 12.5668C2.91063 11.3471 2.94549 10.0841 3.26866 8.88044C3.68024 7.41435 4.49852 6.09476 5.62882 5.07436C6.75912 4.05395 8.15525 3.37444 9.65565 3.11444C10.0985 3.0399 10.5466 3.00178 10.9956 3.00044C12.2595 3.00139 13.5055 3.29807 14.6342 3.86674C15.7629 4.43541 16.7428 5.2603 17.4956 6.27544C18.8254 8.22433 19.9403 10.3115 20.8206 12.5004H20.3776ZM16.2086 8.05144C16.0133 7.70498 15.6883 7.4503 15.3052 7.3434C14.922 7.23651 14.5122 7.28616 14.1656 7.48144L13.4576 7.88144C13.1623 7.64235 12.8343 7.4467 12.4836 7.30044V6.50044C12.4836 6.10262 12.3256 5.72108 12.0443 5.43978C11.763 5.15847 11.3815 5.00044 10.9836 5.00044C10.5858 5.00044 10.2043 5.15847 9.92299 5.43978C9.64168 5.72108 9.48365 6.10262 9.48365 6.50044V7.30044C9.13278 7.44763 8.80479 7.64429 8.50965 7.88444L7.80165 7.48444C7.62988 7.38766 7.44073 7.32565 7.245 7.30197C7.04927 7.27828 6.85079 7.29338 6.66089 7.34641C6.471 7.39943 6.29341 7.48933 6.13826 7.61099C5.98311 7.73265 5.85344 7.88367 5.75665 8.05544C5.65987 8.22721 5.59787 8.41636 5.57418 8.61209C5.5505 8.80782 5.5656 9.0063 5.61862 9.1962C5.7257 9.57971 5.98075 9.90498 6.32765 10.1004L7.03465 10.5004C7.00723 10.6659 6.99019 10.8329 6.98365 11.0004C6.98994 11.17 7.00698 11.339 7.03465 11.5064L6.32765 11.9064C5.98101 12.1019 5.72622 12.4271 5.61933 12.8104C5.51243 13.1937 5.56219 13.6038 5.75765 13.9504C5.95312 14.2971 6.27828 14.5519 6.6616 14.6588C7.04492 14.7657 7.45501 14.7159 7.80165 14.5204L8.50965 14.1204C8.80503 14.3592 9.13301 14.5545 9.48365 14.7004V15.5004C9.48365 15.8983 9.64168 16.2798 9.92299 16.5611C10.2043 16.8424 10.5858 17.0004 10.9836 17.0004C11.3815 17.0004 11.763 16.8424 12.0443 16.5611C12.3256 16.2798 12.4836 15.8983 12.4836 15.5004V14.7004C12.8345 14.5532 13.1625 14.3566 13.4576 14.1164L14.1656 14.5164C14.5123 14.7119 14.9224 14.7617 15.3057 14.6548C15.689 14.5479 16.0142 14.2931 16.2096 13.9464C16.4051 13.5998 16.4549 13.1897 16.348 12.8064C16.2411 12.4231 15.9863 12.0979 15.6396 11.9024L14.9326 11.5024C14.9602 11.3363 14.9772 11.1687 14.9836 11.0004C14.9774 10.8309 14.9603 10.6619 14.9326 10.4944L15.6396 10.0944C15.9859 9.8989 16.2404 9.57385 16.3471 9.19074C16.4538 8.80763 16.404 8.39784 16.2086 8.05144ZM11.9836 11.0004C11.9836 11.1982 11.925 11.3916 11.8151 11.556C11.7052 11.7205 11.5491 11.8486 11.3663 11.9243C11.1836 12 10.9825 12.0198 10.7886 11.9812C10.5946 11.9426 10.4164 11.8474 10.2765 11.7075C10.1367 11.5677 10.0414 11.3895 10.0029 11.1955C9.96428 11.0016 9.98408 10.8005 10.0598 10.6178C10.1355 10.435 10.2636 10.2789 10.4281 10.169C10.5925 10.0591 10.7859 10.0004 10.9836 10.0004C11.2489 10.0004 11.5032 10.1058 11.6908 10.2933C11.8783 10.4809 11.9836 10.7352 11.9836 11.0004Z" fill="#9B51E0"/>
</g>
</g>
<defs>
<clipPath id="clip0_8046_406">
<rect width="24" height="24" fill="white"/>
</clipPath>
<clipPath id="clip1_8046_406">
<rect width="24" height="24" fill="white" transform="translate(-0.0163574)"/>
</clipPath>
</defs>
</svg>
